<?xml version="1.0" encoding="iso-8859-1"?>
<!-- Generator: Adobe Illustrator 18.0.0, SVG Export Plug-In . SVG Version: 6.00 Build 0)  -->
<!DOCTYPE svg PUBLIC "-//W3C//DTD SVG 1.1//EN" "http://www.w3.org/Graphics/SVG/1.1/DTD/svg11.dtd">
<svg version="1.1" id="Capa_1" xmlns="http://www.w3.org/2000/svg" xmlns:xlink="http://www.w3.org/1999/xlink" x="0px" y="0px"
	 viewBox="0 0 297 297" style="enable-background:new 0 0 297 297;" xml:space="preserve">
<g>
	<path d="M240.83,28.183C216.046,10.009,183.256,0,148.5,0S80.954,10.009,56.17,28.183C30.464,47.035,16.308,72.389,16.308,99.577
		v57.077c0,3.547,1.9,6.822,4.98,8.581l60.423,34.308l2.369,7.109c3.725,11.173,5.613,22.809,5.613,34.586v45.879
		c0,3.425,1.774,6.607,4.688,8.408c1.587,0.981,3.389,1.476,5.196,1.476c1.511,0,3.025-0.346,4.42-1.043l44.504-22.252
		l44.504,22.252c1.395,0.698,2.908,1.043,4.42,1.043c1.807,0,3.609-0.495,5.196-1.476c2.914-1.801,4.688-4.982,4.688-8.408v-45.879
		c0-11.776,1.888-23.413,5.612-34.586l2.101-6.304l60.692-35.112c3.08-1.76,4.98-5.034,4.98-8.581V99.577
		C280.692,72.389,266.536,47.035,240.83,28.183z M188.876,222.869l-18.276-9.138l22.996-11.498
		C191.454,208.992,189.879,215.886,188.876,222.869z M148.5,202.681l-39.672-19.836h79.344L148.5,202.681z M103.403,202.233
		l22.997,11.498l-18.276,9.138C107.121,215.886,105.546,208.991,103.403,202.233z M148.5,224.781l26.823,13.412L148.5,251.605
		l-26.823-13.412L148.5,224.781z M203.848,163.078H93.152V150.23h110.696V163.078z M109.46,271.124v-16.94l16.94,8.47
		L109.46,271.124z M170.6,262.655l16.94-8.47v16.94L170.6,262.655z M260.925,150.918l-37.31,21.321v-31.892
		c0-5.458-4.425-9.884-9.884-9.884H83.269c-5.458,0-9.884,4.425-9.884,9.884v31.892l-37.31-21.321V99.577
		c0-44.007,50.434-79.809,112.425-79.809S260.925,55.57,260.925,99.577V150.918z"/>
	<path d="M83.266,97.847c-2.599,0-5.149,1.057-6.988,2.896s-2.896,4.389-2.896,6.988c0,2.599,1.057,5.149,2.896,6.987
		c1.839,1.839,4.389,2.897,6.988,2.897s5.149-1.058,6.987-2.897c1.848-1.838,2.897-4.388,2.897-6.987
		c0-2.599-1.048-5.149-2.897-6.988C88.415,98.904,85.865,97.847,83.266,97.847z"/>
	<path d="M83.266,65.231c-2.599,0-5.149,1.057-6.988,2.896s-2.896,4.389-2.896,6.988s1.057,5.149,2.896,6.987
		c1.839,1.839,4.389,2.897,6.988,2.897s5.149-1.058,6.987-2.897c1.848-1.838,2.897-4.388,2.897-6.987s-1.048-5.149-2.897-6.988
		C88.415,66.288,85.865,65.231,83.266,65.231z"/>
	<path d="M213.728,65.231c-2.599,0-5.14,1.057-6.988,2.896c-1.839,1.839-2.896,4.389-2.896,6.988c0,2.609,1.057,5.149,2.896,6.987
		c1.839,1.839,4.389,2.897,6.988,2.897c2.599,0,5.149-1.058,6.987-2.897c1.848-1.838,2.897-4.388,2.897-6.987
		s-1.048-5.149-2.897-6.988C218.878,66.288,216.328,65.231,213.728,65.231z"/>
	<path d="M213.728,97.847c-2.599,0-5.149,1.057-6.988,2.896s-2.896,4.389-2.896,6.988c0,2.599,1.057,5.149,2.896,6.987
		c1.839,1.839,4.389,2.897,6.988,2.897c2.599,0,5.149-1.058,6.987-2.897c1.848-1.838,2.897-4.388,2.897-6.987
		c0-2.599-1.048-5.149-2.897-6.988C218.878,98.904,216.337,97.847,213.728,97.847z"/>
</g>
<g>
</g>
<g>
</g>
<g>
</g>
<g>
</g>
<g>
</g>
<g>
</g>
<g>
</g>
<g>
</g>
<g>
</g>
<g>
</g>
<g>
</g>
<g>
</g>
<g>
</g>
<g>
</g>
<g>
</g>
</svg>
